<svg width="195" height="97" viewBox="0 0 195 97" fill="none" xmlns="http://www.w3.org/2000/svg">
<path d="M17.65 90.0945V108.361" stroke="#EEEEEE" stroke-width="2"/>
<path d="M33.0861 54.3708L33.0861 108.901" stroke="#EEEEEE" stroke-width="2"/>
<path d="M49.1097 64.7189V109.441" stroke="#EEEEEE" stroke-width="2"/>
<path d="M66.2012 59.3199V108.721" stroke="#EEEEEE" stroke-width="2"/>
<path d="M82.4386 18.3771V108.901" stroke="#EEEEEE" stroke-width="2"/>
<path d="M99.5304 36.9138V108.721" stroke="#EEEEEE" stroke-width="2"/>
<path d="M115.981 41.593V108.361" stroke="#EEEEEE" stroke-width="2"/>
<path d="M133.073 48.2518V108.001" stroke="#EEEEEE" stroke-width="2"/>
<path d="M150.165 18.3771V108.361" stroke="#EEEEEE" stroke-width="2"/>
<path d="M168.111 41.9529V108.721" stroke="#EEEEEE" stroke-width="2"/>
<path d="M187.34 25.0359V108.001" stroke="#EEEEEE" stroke-width="2"/>
<path d="M2.00012 108.541L17.7032 90.1845L32.979 54.2808L49.1094 64.9889L65.9876 59.2299L82.4385 18.1072L99.2098 36.7339L108.931 25.3959L116.195 41.953L132.966 48.7918L137.06 37.3851C138.029 34.6853 139.38 32.1384 141.072 29.8223L149.631 18.1072L168.004 44.1126L186.805 25.3959L194.069 8.47885L208.597 1.99998" stroke="black" stroke-width="3"/>
</svg>
