<svg width="90" height="80" viewBox="0 0 90 80" fill="none" xmlns="http://www.w3.org/2000/svg">
<path d="M160.231 81.9612C160.231 124.916 125.409 159.737 82.4548 159.737C39.5005 159.737 4.67916 124.916 4.67916 81.9612C4.67916 39.0069 39.5005 4.18556 82.4548 4.18556C125.409 4.18556 160.231 39.0069 160.231 81.9612Z" stroke="#121212" stroke-width="7.85613"/>
<path d="M135.539 81.0961C135.539 110.123 112.008 133.655 82.9809 133.655C53.9536 133.655 30.4224 110.123 30.4224 81.0961C30.4224 52.0689 53.9536 28.5377 82.9809 28.5377C112.008 28.5377 135.539 52.0689 135.539 81.0961Z" stroke="#121212" stroke-opacity="0.4" stroke-width="4.71368"/>
<path fill-rule="evenodd" clip-rule="evenodd" d="M75.0948 36.3128C57.6078 36.3128 43.4318 50.4888 43.4318 67.9758L27.9864 67.9758C27.9864 41.9585 49.0776 20.8674 75.0948 20.8674L75.0948 36.3128Z" fill="white"/>
</svg>
