<svg width="96" height="93" viewBox="0 0 96 93" fill="none" xmlns="http://www.w3.org/2000/svg">
<path d="M0.435486 77.6278C0.435486 78.1801 0.883201 78.6278 1.43549 78.6278C1.98777 78.6278 2.43549 78.1801 2.43549 77.6278H0.435486ZM22.5724 46.9972L17.7989 56.9972H29.3459L24.5724 46.9972H22.5724ZM2.43549 77.6278L2.43549 47.8281H0.435486L0.435486 77.6278H2.43549ZM22.5724 47.8281V47.9972H24.5724V47.8281H22.5724ZM12.5039 37.7596C18.0646 37.7596 22.5724 42.2674 22.5724 47.8281H24.5724C24.5724 41.1629 19.1692 35.7596 12.5039 35.7596V37.7596ZM2.43549 47.8281C2.43549 42.2674 6.94329 37.7596 12.5039 37.7596V35.7596C5.83872 35.7596 0.435486 41.1629 0.435486 47.8281H2.43549Z" fill="black"/>
<path d="M89.983 16.3256L84.2095 26.3256H95.7565L89.983 16.3256ZM68.8461 46.682C68.8461 46.1297 68.3983 45.682 67.8461 45.682C67.2938 45.682 66.8461 46.1297 66.8461 46.682H68.8461ZM88.983 25.3256V66.5594H90.983V25.3256H88.983ZM68.8461 66.5594V46.682H66.8461V66.5594H68.8461ZM78.9145 76.6278C73.3539 76.6278 68.8461 72.12 68.8461 66.5594H66.8461C66.8461 73.2246 72.2493 78.6278 78.9145 78.6278V76.6278ZM88.983 66.5594C88.983 72.12 84.4752 76.6278 78.9145 76.6278V78.6278C85.5797 78.6278 90.983 73.2246 90.983 66.5594H88.983Z" fill="black"/>
<path d="M45.7092 46.7638V66.5593C45.7092 72.6723 40.7536 77.6278 34.6407 77.6278V77.6278C28.5278 77.6278 23.5722 72.6723 23.5722 66.5593V46.7638" stroke="black" stroke-width="2" stroke-linecap="round"/>
<path d="M67.8461 46.7638V12.0685C67.8461 5.95551 62.8906 0.999989 56.7776 0.999989V0.999989C50.6647 0.999989 45.7091 5.95551 45.7091 12.0684V46.7638" stroke="black" stroke-width="2" stroke-linecap="round"/>
<path d="M11.4355 85.694L1.43549 80.9205L1.43549 92.4675L11.4355 87.694V85.694ZM90 86.694L80 80.9205V92.4675L90 86.694ZM10.4355 87.694L81 87.694V85.694L10.4355 85.694V87.694Z" fill="#EEEEEE"/>
</svg>
